<?xml version="1.0" encoding="utf-8"?>
<!-- Generator: Adobe Illustrator 16.0.0, SVG Export Plug-In . SVG Version: 6.00 Build 0)  -->
<!DOCTYPE svg PUBLIC "-//W3C//DTD SVG 1.1//EN" "http://www.w3.org/Graphics/SVG/1.1/DTD/svg11.dtd">
<svg version="1.1" xmlns="http://www.w3.org/2000/svg" xmlns:xlink="http://www.w3.org/1999/xlink" x="0px" y="0px"
	 width="200.333px" height="99.999px" viewBox="0 0 200.333 99.999" enable-background="new 0 0 200.333 99.999"
	 xml:space="preserve">
<g id="Слой_1">
	<path fill="#1A1A1A" d="M84.667,47.499h-4v-17.5h4.025l5.399,7.375l5.101-7.375h3.774v17.5h-4v-11.15l-4.875,6.825h-0.575
		l-4.85-6.75V47.499z"/>
	<path fill="#1A1A1A" d="M103.792,39.774l-0.925-2.726c1.199-0.733,2.591-1.1,4.175-1.1c1.633,0,2.82,0.392,3.563,1.175
		c0.741,0.783,1.112,1.983,1.112,3.6v6.775h-3.25v-1.025c-0.55,0.784-1.533,1.176-2.95,1.176c-1.066,0-1.925-0.316-2.575-0.95
		c-0.649-0.634-0.975-1.5-0.975-2.601c0-1.183,0.371-2.1,1.112-2.75c0.741-0.649,1.721-0.975,2.938-0.975
		c0.95,0,1.684,0.209,2.2,0.625c0.083-1.283-0.434-1.925-1.55-1.925C105.9,39.074,104.941,39.307,103.792,39.774z M106.792,44.524
		c0.666,0,1.142-0.191,1.425-0.575v-0.7c-0.35-0.25-0.825-0.375-1.425-0.375c-0.317,0-0.575,0.075-0.775,0.225
		c-0.2,0.15-0.3,0.359-0.3,0.625c0,0.25,0.1,0.446,0.3,0.588S106.474,44.524,106.792,44.524z"/>
	<path fill="#1A1A1A" d="M117.966,47.499h-3.75v-17.5h3.75v11.125l3.075-4.875h4.7l-3.65,5.075l4.175,6.175h-4.8l-3.5-5.375V47.499z
		"/>
	<path fill="#1A1A1A" d="M135.716,43.874l1.024,2.65c-1.133,0.85-2.592,1.274-4.375,1.274c-1.833,0-3.316-0.541-4.449-1.625
		c-1.101-1.083-1.65-2.517-1.65-4.3c0-1.7,0.559-3.108,1.675-4.225c1.134-1.134,2.608-1.7,4.425-1.7c1.483,0,2.767,0.5,3.851,1.5
		c1.066,0.967,1.6,2.233,1.6,3.8c0,0.75-0.075,1.375-0.225,1.875h-7.45c0.333,1.033,1.208,1.55,2.625,1.55
		C133.866,44.673,134.849,44.407,135.716,43.874z M132.241,39.074c-1.1,0-1.842,0.517-2.225,1.55h4.05c0-0.434-0.167-0.8-0.5-1.1
		C133.233,39.223,132.792,39.074,132.241,39.074z"/>
	<path fill="#1A1A1A" d="M81.091,70.052h-0.425v-17.5h0.35c0.75,0,1.584-0.009,2.5-0.024c0.351,0,0.738-0.004,1.163-0.014
		c0.425-0.008,0.754-0.016,0.987-0.024s0.408-0.013,0.525-0.013c3.283,0,5.741,0.816,7.375,2.45
		c1.633,1.634,2.449,3.708,2.449,6.226c0,2.583-0.875,4.725-2.625,6.424c-1.733,1.684-4.199,2.525-7.399,2.525
		c-0.65,0-1.375-0.008-2.175-0.025C83.016,70.061,82.108,70.052,81.091,70.052z M86.141,56.227c-0.649,0-1.142,0.025-1.475,0.075v10
		c0.467,0.034,0.95,0.05,1.45,0.05c1.767,0,3.149-0.458,4.149-1.375c1-0.916,1.5-2.191,1.5-3.824c0-1.551-0.508-2.759-1.524-3.625
		C89.225,56.661,87.858,56.227,86.141,56.227z"/>
	<path fill="#1A1A1A" d="M107.242,66.427l1.024,2.649c-1.133,0.851-2.592,1.275-4.375,1.275c-1.833,0-3.316-0.541-4.449-1.625
		c-1.101-1.083-1.65-2.516-1.65-4.3c0-1.7,0.559-3.108,1.675-4.226c1.134-1.133,2.608-1.699,4.425-1.699
		c1.483,0,2.767,0.5,3.851,1.5c1.066,0.967,1.6,2.233,1.6,3.8c0,0.75-0.075,1.375-0.225,1.875h-7.45
		c0.333,1.034,1.208,1.55,2.625,1.55C105.391,67.227,106.375,66.961,107.242,66.427z M103.766,61.627c-1.1,0-1.842,0.517-2.225,1.55
		h4.05c0-0.433-0.167-0.8-0.5-1.101C104.758,61.778,104.317,61.627,103.766,61.627z"/>
	<path fill="#1A1A1A" d="M120.142,65.602l1.75,2.75c-0.984,1.334-2.518,2-4.601,2c-1.866,0-3.366-0.541-4.5-1.625
		c-1.116-1.066-1.675-2.5-1.675-4.3c0-1.683,0.55-3.083,1.65-4.2c1.133-1.15,2.566-1.725,4.3-1.725c2.05,0,3.583,0.533,4.6,1.6
		l-1.725,2.95c-0.7-0.7-1.5-1.05-2.4-1.05c-0.667,0-1.237,0.225-1.712,0.675c-0.476,0.45-0.713,1.034-0.713,1.75
		c0,0.717,0.25,1.3,0.75,1.75c0.533,0.45,1.108,0.675,1.725,0.675C118.508,66.852,119.358,66.436,120.142,65.602z"/>
	<path fill="#0000FF" d="M123.866,54.927c0-0.634,0.217-1.146,0.65-1.538c0.433-0.391,0.975-0.587,1.625-0.587
		c0.583,0,1.083,0.2,1.5,0.601c0.416,0.399,0.625,0.908,0.625,1.524c0,0.684-0.209,1.233-0.625,1.649
		c-0.417,0.418-0.917,0.625-1.5,0.625c-0.667,0-1.213-0.203-1.638-0.611S123.866,55.627,123.866,54.927z"/>
	<rect x="124.191" y="58.802" fill="#1A1A1A" width="3.75" height="11.25"/>
	<path fill="#1A1A1A" d="M136.616,66.727c0-0.3-0.699-0.616-2.1-0.949c-0.5-0.117-0.946-0.25-1.338-0.4s-0.796-0.358-1.212-0.625
		c-0.417-0.267-0.737-0.621-0.963-1.063c-0.225-0.441-0.337-0.945-0.337-1.513c0-1.134,0.408-2.028,1.225-2.688
		c0.816-0.658,1.875-0.987,3.175-0.987c1.983,0,3.559,0.508,4.726,1.525l-1.4,2.649c-1.033-0.7-2.066-1.05-3.1-1.05
		c-0.25,0-0.459,0.05-0.625,0.15c-0.167,0.1-0.25,0.217-0.25,0.35c0,0.199,0.203,0.367,0.612,0.5
		c0.408,0.133,0.903,0.271,1.487,0.412c0.583,0.143,1.166,0.325,1.75,0.551c0.583,0.225,1.079,0.587,1.487,1.087
		s0.612,1.125,0.612,1.875c0,1.149-0.438,2.071-1.313,2.763s-2.054,1.037-3.537,1.037c-1.1,0-2.158-0.225-3.175-0.675
		c-1.017-0.483-1.667-0.95-1.95-1.399l1.775-2.451c0.35,0.351,0.899,0.676,1.649,0.976c0.767,0.284,1.417,0.425,1.95,0.425
		C136.333,67.227,136.616,67.061,136.616,66.727z"/>
	<path fill="#0000FF" d="M142.491,54.927c0-0.634,0.217-1.146,0.65-1.538c0.433-0.391,0.975-0.587,1.625-0.587
		c0.583,0,1.083,0.2,1.5,0.601c0.416,0.399,0.625,0.908,0.625,1.524c0,0.684-0.209,1.233-0.625,1.649
		c-0.417,0.418-0.917,0.625-1.5,0.625c-0.667,0-1.213-0.203-1.638-0.611S142.491,55.627,142.491,54.927z"/>
	<rect x="142.816" y="58.802" fill="#1A1A1A" width="3.75" height="11.25"/>
	<path fill="#1A1A1A" d="M150.716,68.677c-1.134-1.134-1.7-2.55-1.7-4.25s0.566-3.116,1.7-4.25c1.133-1.116,2.649-1.675,4.55-1.675
		s3.408,0.559,4.525,1.675c1.149,1.116,1.725,2.534,1.725,4.25c0,1.717-0.575,3.134-1.725,4.25
		c-1.117,1.116-2.625,1.675-4.525,1.675S151.849,69.793,150.716,68.677z M153.016,64.427c0,0.7,0.213,1.279,0.638,1.737
		c0.425,0.459,0.962,0.688,1.612,0.688c0.666,0,1.208-0.221,1.625-0.662c0.416-0.441,0.625-1.029,0.625-1.763
		c0-0.7-0.213-1.278-0.638-1.737s-0.962-0.688-1.612-0.688s-1.188,0.221-1.612,0.662S153.016,63.694,153.016,64.427z"/>
	<path fill="#1A1A1A" d="M167.391,70.052h-3.75v-11.25h3.75v0.875c0.733-0.716,1.658-1.075,2.775-1.075
		c3.05,0,4.574,1.584,4.574,4.75v6.7h-3.75v-6.05c0-0.617-0.162-1.088-0.487-1.412c-0.325-0.326-0.779-0.488-1.362-0.488
		c-0.65,0-1.233,0.259-1.75,0.775V70.052z"/>
</g>
<g id="Слой_2">
</g>
<g id="Слой_3">
	<g>
		<path fill="#0000FF" d="M44.654,56.434l25.544-23.406c-0.765-1.781-2.533-3.03-4.594-3.03c-2.418,0-27.519,0-29.938,0
			c-2.761,0-5,2.239-5,5c0,0.826,0,4.303,0,8.619L44.654,56.434z"/>
		<path fill="#0000FF" d="M30.667,64.999c0,2.761,2.239,5,5,5c0.724,0,4.422,0,8.988,0L30.667,57.181
			C30.667,61.12,30.667,64.225,30.667,64.999z"/>
		<path fill="#0000FF" d="M44.654,69.999c0.007,0,0.013,0,0.02,0v9.5c0,0.198,0.117,0.378,0.299,0.458
			c0.064,0.028,0.133,0.042,0.201,0.042c0.123,0,0.244-0.045,0.338-0.132l10.769-9.868c4.719,0,8.582,0,9.323,0c2.761,0,5-2.239,5-5
			c0-1.626,0-10.917,0-18.779L44.654,69.999z"/>
	</g>
</g>
</svg>
